<?xml version="1.0" encoding="UTF-8"?>
<svg id="Layer_1" data-name="Layer 1" xmlns="http://www.w3.org/2000/svg" width="239.2" height="319.8" version="1.1" viewBox="0 0 239.2 319.8">
  <defs>
    <style>
      .cls-1 {
        fill: #2563eb;
        stroke-width: 0px;
      }
    </style>
  </defs>
  <path class="cls-1" d="M57.2,306.2c-20.9-9.1-39.1-22.3-54.6-39.8-1.8-2-2.6-4-2.6-5.9s1.1-4.4,3.3-6.6l38.9-36.9c1.9-1.9,3.9-2.9,5.9-2.9s4.5,1.1,6.4,3.3c9.4,9.7,19.8,17,31.4,21.9,11.6,4.9,23.6,7.4,36,7.4s21.7-2.1,27.9-6.4c6.2-4.2,9.2-10,9.2-17.4s-1.4-9.3-4.1-13c-2.7-3.7-7.9-7.3-15.6-11-7.7-3.7-18.9-7.7-33.7-12.1-24.5-7.2-46.2-18.6-65.4-34.4-19.1-15.7-28.7-37-28.7-63.8s4-30.7,12.1-44.2c8.1-13.5,20.4-24.3,36.9-32.4C77.2,4.1,97.5,0,121.7,0s39.8,3.7,58.4,11c18.6,7.3,35.1,17.2,49.6,29.7,2.2,1.9,3.3,4,3.3,6.4s-.9,4.1-2.6,6.2l-35.6,40c-1.9,2.3-4,3.5-6.4,3.5s-3.9-.8-5.9-2.4c-8.2-6.4-17.5-11.9-27.9-16.4-10.4-4.5-20.6-6.7-30.8-6.7-20.6,0-31,6.1-31,18.2s1.7,9.4,5.1,13c3.4,3.5,7.9,6.5,13.5,9,5.6,2.5,14.3,5.8,26,9.9,1.6.4,4,1.2,7.2,2.4,20.8,7.3,38,15.2,51.6,23.5,13.6,8.3,24.2,18.6,31.6,30.6,7.5,12.1,11.2,26.6,11.2,43.6s-4.8,36.9-14.3,51.7c-9.5,14.9-23,26.4-40.4,34.5-17.4,8.1-37.6,12.2-60.6,12.2s-45.8-4.5-66.7-13.6Z"/>
</svg>