<?xml version="1.0" encoding="UTF-8"?>
<svg id="Layer_1" data-name="Layer 1" xmlns="http://www.w3.org/2000/svg" width="253.2" height="79.2" version="1.1" viewBox="0 0 253.2 79.2">
  <defs>
    <style>
      .cls-1 {
        fill: #2563eb;
        stroke-width: 0px;
      }
    </style>
  </defs>
  <path class="cls-1" d="M10.1,62.9c-3.7-1.6-6.9-3.9-9.6-7-.3-.4-.5-.7-.5-1s.2-.8.6-1.2l6.9-6.5c.3-.3.7-.5,1-.5s.8.2,1.1.6c1.7,1.7,3.5,3,5.5,3.9,2,.9,4.2,1.3,6.3,1.3s3.8-.4,4.9-1.1c1.1-.7,1.6-1.8,1.6-3.1s-.2-1.6-.7-2.3c-.5-.6-1.4-1.3-2.7-1.9-1.4-.6-3.3-1.4-5.9-2.1-4.3-1.3-8.1-3.3-11.5-6.1-3.4-2.8-5.1-6.5-5.1-11.2s.7-5.4,2.1-7.8c1.4-2.4,3.6-4.3,6.5-5.7,2.9-1.4,6.5-2.1,10.8-2.1s7,.6,10.3,1.9c3.3,1.3,6.2,3,8.7,5.2.4.3.6.7.6,1.1s-.2.7-.5,1.1l-6.3,7c-.3.4-.7.6-1.1.6s-.7-.1-1-.4c-1.4-1.1-3.1-2.1-4.9-2.9-1.8-.8-3.6-1.2-5.4-1.2-3.6,0-5.5,1.1-5.5,3.2s.3,1.7.9,2.3c.6.6,1.4,1.1,2.4,1.6,1,.4,2.5,1,4.6,1.7.3,0,.7.2,1.3.4,3.7,1.3,6.7,2.7,9.1,4.1,2.4,1.5,4.3,3.3,5.6,5.4,1.3,2.1,2,4.7,2,7.7s-.8,6.5-2.5,9.1c-1.7,2.6-4.1,4.6-7.1,6.1-3.1,1.4-6.6,2.1-10.7,2.1s-8.1-.8-11.7-2.4Z"/>
  <path class="cls-1" d="M62,64.4h-10.1c-1,0-1.5-.5-1.5-1.5V29.7h-3.9c-1,0-1.5-.5-1.5-1.5v-9.1c0-1,.5-1.5,1.5-1.5h3.8v-8.4c0-1,.5-1.5,1.4-1.7l10.2-2c.1,0,.2,0,.4,0,.4,0,.7.1,1,.4.2.3.3.6.3,1v10.7h7.3c1,0,1.5.5,1.5,1.5v9.1c0,1-.5,1.5-1.5,1.5h-7.3v33.1c0,1-.5,1.5-1.5,1.5Z"/>
  <path class="cls-1" d="M114.2,17.5h7.4c1,0,1.5.5,1.5,1.5v43.7c0,1-.5,1.5-1.5,1.5h-7.7c-.9,0-1.4-.4-1.8-1.2l-1-2.3c-3.2,3-7.3,4.5-12.2,4.5s-8.5-1.1-12.2-3.3c-3.7-2.2-6.7-5.1-8.8-8.9-2.2-3.7-3.3-7.8-3.3-12.3s1.1-8.5,3.3-12.2c2.2-3.7,5.1-6.6,8.8-8.8,3.7-2.2,7.8-3.3,12.2-3.3s9,1.5,12.3,4.6l1.1-2.6c.3-.8.9-1.2,1.8-1.2ZM105.1,51.3c1.8-1,3.2-2.4,4.2-4.1,1-1.8,1.5-3.8,1.5-6s-.5-4.3-1.5-6.1c-1-1.8-2.4-3.2-4.1-4.2-1.8-1-3.7-1.5-5.8-1.5s-4.1.5-5.8,1.5c-1.7,1-3.1,2.4-4.1,4.2-1,1.8-1.5,3.8-1.5,6.1s.5,4.2,1.5,6c1,1.8,2.3,3.1,4,4.1,1.7,1,3.7,1.5,5.8,1.5s4.1-.5,5.9-1.5Z"/>
  <path class="cls-1" d="M127.7,77.7v-8.8c0-1,.3-1.5.9-1.5,1.9,0,3.2-.5,4-1.4.8-.9,1.2-2.4,1.2-4.3V19.1c0-1,.5-1.5,1.5-1.5h10c1,0,1.5.5,1.5,1.5v42.6c0,5.7-1.5,10-4.5,13-3,3-7.4,4.5-13.1,4.5s-1.5-.5-1.5-1.5ZM133.7,10.6V1.5c0-1,.5-1.5,1.5-1.5h10.3c1,0,1.5.5,1.5,1.5v9.1c0,1-.5,1.5-1.5,1.5h-10.3c-1,0-1.5-.5-1.5-1.5Z"/>
  <path class="cls-1" d="M157.9,11V1.9c0-1,.5-1.5,1.5-1.5h10.3c1,0,1.5.5,1.5,1.5v9.1c0,1-.5,1.5-1.5,1.5h-10.3c-1,0-1.5-.5-1.5-1.5ZM169.5,64.4h-10.1c-1,0-1.5-.5-1.5-1.5V19.1c0-1,.5-1.5,1.5-1.5h10.1c1,0,1.5.5,1.5,1.5v43.7c0,1-.5,1.5-1.5,1.5Z"/>
  <path class="cls-1" d="M194,64.4h-10.1c-1,0-1.5-.5-1.5-1.5V29.7h-3.8c-1,0-1.5-.5-1.5-1.5v-9.1c0-1,.5-1.5,1.5-1.5h3.8v-3.1c0-3.3.6-5.9,1.9-7.9,1.2-2,3.2-3.5,5.7-4.4,2.6-.9,6-1.4,10.1-1.4h1.7c1,0,1.5.5,1.5,1.5v7.7c0,1-.4,1.5-1.3,1.5h-1.3c-1.9,0-3.3.4-4.1,1.1-.8.7-1.2,1.9-1.2,3.5v1.4h6.4c1,0,1.5.5,1.5,1.5v9.1c0,1-.5,1.5-1.5,1.5h-6.4v33.1c0,1-.5,1.5-1.5,1.5Z"/>
  <path class="cls-1" d="M229.7,78.1h-10.6c-.4,0-.8,0-1-.3-.2-.2-.3-.4-.3-.8s0-.5.2-.7l4.9-12.2-17.1-44.9c0-.2-.1-.5-.1-.7,0-.4.1-.6.3-.8s.6-.3,1-.3h11.3c.9,0,1.5.4,1.8,1.3l9.4,28.8,9.5-28.8c.3-.9.9-1.3,1.8-1.3h11.3c.4,0,.7,0,1,.3.2.2.4.5.4.8s0,.4-.1.7l-21.7,57.6c-.3.8-.9,1.2-1.8,1.2Z"/>
</svg>