<?xml version="1.0" encoding="UTF-8"?>
<svg id="Layer_1" data-name="Layer 1" xmlns="http://www.w3.org/2000/svg" width="246.81" height="79.24" version="1.1" viewBox="0 0 246.81 79.24">
  <defs>
    <style>
      .cls-1 {
        fill: #2563eb;
        stroke-width: 0px;
      }
    </style>
  </defs>
  <path class="cls-1" d="M9.27,63.7c-3.08-1.22-5.97-3.03-8.65-5.4-.41-.33-.62-.71-.62-1.12,0-.33.14-.68.43-1.04l5.23-6.54c.36-.44.74-.66,1.12-.66.28,0,.63.14,1.04.43,1.88,1.42,3.75,2.52,5.59,3.29,1.84.77,3.71,1.16,5.59,1.16,1.29,0,2.32-.25,3.1-.75.77-.5,1.16-1.22,1.16-2.15,0-.62-.23-1.19-.68-1.7-.45-.52-1.23-1.04-2.34-1.57-1.11-.53-2.68-1.14-4.72-1.84-3.9-1.32-7.11-3.11-9.64-5.38-2.53-2.27-3.79-5.39-3.79-9.37,0-2.53.63-4.88,1.88-7.04,1.25-2.17,3.16-3.92,5.73-5.25s5.72-1.99,9.46-1.99c2.58,0,5.23.51,7.95,1.53,2.72,1.02,5.13,2.54,7.22,4.55.36.36.54.72.54,1.08,0,.31-.18.67-.54,1.08l-6.12,6.31c-.34.36-.7.54-1.08.54-.34,0-.7-.15-1.08-.46-1.06-.85-2.23-1.55-3.5-2.11-1.28-.55-2.55-.83-3.81-.83s-2.32.25-3,.74c-.68.49-1.03,1.16-1.03,2.01,0,.59.25,1.13.75,1.61.5.48,1.31.96,2.42,1.43,1.11.48,2.66,1.04,4.65,1.68,4.26,1.37,7.55,3.2,9.87,5.5,2.32,2.3,3.48,5.41,3.48,9.33,0,2.56-.65,4.96-1.95,7.22-1.3,2.26-3.2,4.08-5.69,5.48-2.49,1.39-5.44,2.09-8.85,2.09-3.66,0-7.04-.61-10.12-1.84Z"/>
  <path class="cls-1" d="M55.59,64.37h-10.06c-1.03,0-1.55-.52-1.55-1.55V29.73h-3.87c-1.03,0-1.55-.52-1.55-1.55v-9.1c0-1.03.52-1.55,1.55-1.55h3.79v-8.44c0-.95.46-1.52,1.39-1.7l10.18-1.97c.1-.03.23-.04.39-.04.41,0,.74.13.97.39.23.26.35.61.35,1.04v10.72h7.28c1.03,0,1.55.52,1.55,1.55v9.1c0,1.03-.52,1.55-1.55,1.55h-7.32v33.1c0,1.03-.52,1.55-1.55,1.55Z"/>
  <path class="cls-1" d="M107.73,17.54h7.43c1.03,0,1.55.52,1.55,1.55v43.74c0,1.03-.52,1.55-1.55,1.55h-7.7c-.85,0-1.45-.4-1.78-1.2l-.97-2.32c-3.23,3.02-7.28,4.53-12.15,4.53-4.41,0-8.48-1.09-12.19-3.27-3.72-2.18-6.66-5.13-8.83-8.86-2.17-3.73-3.25-7.81-3.25-12.25s1.09-8.47,3.27-12.17c2.18-3.7,5.13-6.64,8.84-8.81,3.72-2.17,7.77-3.25,12.16-3.25,4.93,0,9.02,1.54,12.27,4.61l1.12-2.63c.33-.8.93-1.2,1.78-1.2ZM98.65,51.31c1.77-.99,3.16-2.37,4.18-4.14,1.02-1.77,1.53-3.76,1.53-5.98s-.5-4.26-1.51-6.06c-1.01-1.79-2.39-3.21-4.14-4.24-1.75-1.03-3.7-1.55-5.84-1.55s-4.08.51-5.83,1.53c-1.74,1.02-3.11,2.43-4.1,4.24-.99,1.81-1.49,3.83-1.49,6.08s.49,4.25,1.47,6c.98,1.76,2.33,3.13,4.04,4.12,1.72.99,3.66,1.49,5.83,1.49s4.1-.5,5.86-1.49Z"/>
  <path class="cls-1" d="M121.32,77.69v-8.79c0-1.03.28-1.55.85-1.55,1.88,0,3.22-.46,4.01-1.39.79-.93,1.18-2.37,1.18-4.33V19.08c0-1.03.52-1.55,1.55-1.55h9.99c1.03,0,1.55.52,1.55,1.55v42.58c0,5.65-1.5,9.99-4.51,13.03-3.01,3.03-7.36,4.55-13.06,4.55-1.03,0-1.55-.52-1.55-1.55ZM127.24,10.65V1.55c0-1.03.52-1.55,1.55-1.55h10.26c1.03,0,1.55.52,1.55,1.55v9.1c0,1.03-.52,1.55-1.55,1.55h-10.26c-1.03,0-1.55-.52-1.55-1.55Z"/>
  <path class="cls-1" d="M151.43,10.95V1.86c0-1.03.52-1.55,1.55-1.55h10.26c1.03,0,1.55.52,1.55,1.55v9.1c0,1.03-.52,1.55-1.55,1.55h-10.26c-1.03,0-1.55-.52-1.55-1.55ZM163.12,64.37h-10.06c-1.03,0-1.55-.52-1.55-1.55V19.08c0-1.03.52-1.55,1.55-1.55h10.06c1.03,0,1.55.52,1.55,1.55v43.74c0,1.03-.52,1.55-1.55,1.55Z"/>
  <path class="cls-1" d="M187.55,64.37h-10.06c-1.03,0-1.55-.52-1.55-1.55V29.73h-3.79c-1.03,0-1.55-.52-1.55-1.55v-9.1c0-1.03.52-1.55,1.55-1.55h3.79v-3.1c0-3.28.62-5.92,1.86-7.92,1.24-2,3.16-3.46,5.75-4.37,2.59-.92,5.95-1.37,10.08-1.37h1.74c1.03,0,1.55.52,1.55,1.55v7.66c0,1.01-.44,1.51-1.32,1.51h-1.28c-1.91,0-3.26.37-4.06,1.12-.8.75-1.2,1.91-1.2,3.48v1.43h6.43c1.03,0,1.55.52,1.55,1.55v9.1c0,1.03-.52,1.55-1.55,1.55h-6.39v33.1c0,1.03-.52,1.55-1.55,1.55Z"/>
  <path class="cls-1" d="M223.24,78.12h-10.64c-.44,0-.77-.09-1.01-.27s-.35-.44-.35-.77c0-.26.05-.5.16-.74l4.88-12.15-17.11-44.86c-.08-.23-.12-.45-.12-.66,0-.36.12-.64.35-.83s.55-.29.97-.29h11.3c.93,0,1.52.43,1.78,1.28l9.41,28.76,9.48-28.76c.26-.85.85-1.28,1.78-1.28h11.34c.41,0,.74.1.99.29.24.19.37.47.37.83,0,.21-.04.43-.12.66l-21.68,57.56c-.31.83-.9,1.24-1.78,1.24Z"/>
</svg>